<mxfile host="app.diagrams.net" modified="2024-02-08T04:30:00.907Z" agent="Mozilla/5.0 (Windows NT 10.0; Win64; x64) AppleWebKit/537.36 (KHTML, like Gecko) Chrome/121.0.0.0 Safari/537.36" etag="irmhrVFj1gO_Q7c_INAW" version="23.1.1" type="github">
  <diagram name="Page-1" id="yaNoryDKJQzrwY3Clb_Y">
    <mxGraphModel dx="2284" dy="746" grid="1" gridSize="10" guides="1" tooltips="1" connect="1" arrows="1" fold="1" page="1" pageScale="1" pageWidth="850" pageHeight="1100" math="0" shadow="0">
      <root>
        <mxCell id="0" />
        <mxCell id="1" parent="0" />
        <mxCell id="gRAF1kNLKZZ4CSxUnasa-1" value="Patients" style="rounded=0;whiteSpace=wrap;html=1;" parent="1" vertex="1">
          <mxGeometry x="140" y="140" width="120" height="60" as="geometry" />
        </mxCell>
        <mxCell id="gRAF1kNLKZZ4CSxUnasa-2" value="&lt;b&gt;&lt;u&gt;SSN&lt;/u&gt;&lt;/b&gt;" style="ellipse;whiteSpace=wrap;html=1;" parent="1" vertex="1">
          <mxGeometry x="60" y="55" width="80" height="60" as="geometry" />
        </mxCell>
        <mxCell id="gRAF1kNLKZZ4CSxUnasa-3" value="name" style="ellipse;whiteSpace=wrap;html=1;" parent="1" vertex="1">
          <mxGeometry x="150" y="40" width="80" height="60" as="geometry" />
        </mxCell>
        <mxCell id="gRAF1kNLKZZ4CSxUnasa-4" value="address" style="ellipse;whiteSpace=wrap;html=1;" parent="1" vertex="1">
          <mxGeometry x="240" y="30" width="80" height="60" as="geometry" />
        </mxCell>
        <mxCell id="gRAF1kNLKZZ4CSxUnasa-5" value="age" style="ellipse;whiteSpace=wrap;html=1;" parent="1" vertex="1">
          <mxGeometry x="20" y="120" width="80" height="60" as="geometry" />
        </mxCell>
        <mxCell id="gRAF1kNLKZZ4CSxUnasa-6" value="" style="endArrow=none;html=1;rounded=0;entryX=0.988;entryY=0.667;entryDx=0;entryDy=0;entryPerimeter=0;exitX=0;exitY=0.5;exitDx=0;exitDy=0;" parent="1" source="gRAF1kNLKZZ4CSxUnasa-1" target="gRAF1kNLKZZ4CSxUnasa-5" edge="1">
          <mxGeometry width="50" height="50" relative="1" as="geometry">
            <mxPoint x="40" y="240" as="sourcePoint" />
            <mxPoint x="90" y="190" as="targetPoint" />
          </mxGeometry>
        </mxCell>
        <mxCell id="gRAF1kNLKZZ4CSxUnasa-7" value="" style="endArrow=none;html=1;rounded=0;entryX=1;entryY=1;entryDx=0;entryDy=0;exitX=0;exitY=0;exitDx=0;exitDy=0;" parent="1" source="gRAF1kNLKZZ4CSxUnasa-1" target="gRAF1kNLKZZ4CSxUnasa-2" edge="1">
          <mxGeometry width="50" height="50" relative="1" as="geometry">
            <mxPoint x="130" y="160" as="sourcePoint" />
            <mxPoint x="180" y="110" as="targetPoint" />
          </mxGeometry>
        </mxCell>
        <mxCell id="gRAF1kNLKZZ4CSxUnasa-8" value="" style="endArrow=none;html=1;rounded=0;entryX=0.5;entryY=1;entryDx=0;entryDy=0;exitX=0.25;exitY=0;exitDx=0;exitDy=0;" parent="1" source="gRAF1kNLKZZ4CSxUnasa-1" target="gRAF1kNLKZZ4CSxUnasa-3" edge="1">
          <mxGeometry width="50" height="50" relative="1" as="geometry">
            <mxPoint x="140" y="150" as="sourcePoint" />
            <mxPoint x="190" y="100" as="targetPoint" />
          </mxGeometry>
        </mxCell>
        <mxCell id="gRAF1kNLKZZ4CSxUnasa-9" value="" style="endArrow=none;html=1;rounded=0;exitX=0.75;exitY=0;exitDx=0;exitDy=0;entryX=0.413;entryY=1.017;entryDx=0;entryDy=0;entryPerimeter=0;" parent="1" source="gRAF1kNLKZZ4CSxUnasa-1" target="gRAF1kNLKZZ4CSxUnasa-4" edge="1">
          <mxGeometry width="50" height="50" relative="1" as="geometry">
            <mxPoint x="230" y="140" as="sourcePoint" />
            <mxPoint x="280" y="90" as="targetPoint" />
          </mxGeometry>
        </mxCell>
        <mxCell id="gRAF1kNLKZZ4CSxUnasa-10" value="Doctors" style="rounded=0;whiteSpace=wrap;html=1;" parent="1" vertex="1">
          <mxGeometry x="590" y="140" width="120" height="60" as="geometry" />
        </mxCell>
        <mxCell id="gRAF1kNLKZZ4CSxUnasa-11" value="&lt;b&gt;&lt;u&gt;SSN&lt;/u&gt;&lt;/b&gt;" style="ellipse;whiteSpace=wrap;html=1;" parent="1" vertex="1">
          <mxGeometry x="500" y="30" width="80" height="60" as="geometry" />
        </mxCell>
        <mxCell id="gRAF1kNLKZZ4CSxUnasa-12" value="name" style="ellipse;whiteSpace=wrap;html=1;" parent="1" vertex="1">
          <mxGeometry x="600" y="20" width="80" height="60" as="geometry" />
        </mxCell>
        <mxCell id="gRAF1kNLKZZ4CSxUnasa-13" value="specialty" style="ellipse;whiteSpace=wrap;html=1;" parent="1" vertex="1">
          <mxGeometry x="700" y="30" width="80" height="60" as="geometry" />
        </mxCell>
        <mxCell id="gRAF1kNLKZZ4CSxUnasa-14" value="years of experience" style="ellipse;whiteSpace=wrap;html=1;" parent="1" vertex="1">
          <mxGeometry x="770" y="100" width="80" height="60" as="geometry" />
        </mxCell>
        <mxCell id="gRAF1kNLKZZ4CSxUnasa-15" value="" style="endArrow=none;html=1;rounded=0;entryX=0.675;entryY=1.05;entryDx=0;entryDy=0;entryPerimeter=0;exitX=0;exitY=0;exitDx=0;exitDy=0;" parent="1" source="gRAF1kNLKZZ4CSxUnasa-10" target="gRAF1kNLKZZ4CSxUnasa-11" edge="1">
          <mxGeometry width="50" height="50" relative="1" as="geometry">
            <mxPoint x="470" y="160" as="sourcePoint" />
            <mxPoint x="520" y="110" as="targetPoint" />
          </mxGeometry>
        </mxCell>
        <mxCell id="gRAF1kNLKZZ4CSxUnasa-16" value="" style="endArrow=none;html=1;rounded=0;entryX=0.625;entryY=1;entryDx=0;entryDy=0;entryPerimeter=0;exitX=0.392;exitY=-0.017;exitDx=0;exitDy=0;exitPerimeter=0;" parent="1" source="gRAF1kNLKZZ4CSxUnasa-10" target="gRAF1kNLKZZ4CSxUnasa-12" edge="1">
          <mxGeometry width="50" height="50" relative="1" as="geometry">
            <mxPoint x="620" y="140" as="sourcePoint" />
            <mxPoint x="670" y="90" as="targetPoint" />
          </mxGeometry>
        </mxCell>
        <mxCell id="gRAF1kNLKZZ4CSxUnasa-17" value="" style="endArrow=none;html=1;rounded=0;entryX=0.5;entryY=1;entryDx=0;entryDy=0;exitX=0.883;exitY=0.017;exitDx=0;exitDy=0;exitPerimeter=0;" parent="1" source="gRAF1kNLKZZ4CSxUnasa-10" target="gRAF1kNLKZZ4CSxUnasa-13" edge="1">
          <mxGeometry width="50" height="50" relative="1" as="geometry">
            <mxPoint x="730" y="140" as="sourcePoint" />
            <mxPoint x="780" y="90" as="targetPoint" />
          </mxGeometry>
        </mxCell>
        <mxCell id="gRAF1kNLKZZ4CSxUnasa-18" value="" style="endArrow=none;html=1;rounded=0;entryX=0;entryY=0.5;entryDx=0;entryDy=0;exitX=1;exitY=0.5;exitDx=0;exitDy=0;" parent="1" source="gRAF1kNLKZZ4CSxUnasa-10" target="gRAF1kNLKZZ4CSxUnasa-14" edge="1">
          <mxGeometry width="50" height="50" relative="1" as="geometry">
            <mxPoint x="680" y="270" as="sourcePoint" />
            <mxPoint x="730" y="220" as="targetPoint" />
          </mxGeometry>
        </mxCell>
        <mxCell id="gRAF1kNLKZZ4CSxUnasa-19" value="Pharmaceutical Company" style="rounded=0;whiteSpace=wrap;html=1;" parent="1" vertex="1">
          <mxGeometry x="280" y="470" width="120" height="60" as="geometry" />
        </mxCell>
        <mxCell id="gRAF1kNLKZZ4CSxUnasa-21" value="phone number" style="ellipse;whiteSpace=wrap;html=1;" parent="1" vertex="1">
          <mxGeometry x="345" y="560" width="80" height="60" as="geometry" />
        </mxCell>
        <mxCell id="gRAF1kNLKZZ4CSxUnasa-22" value="&lt;b&gt;&lt;u&gt;name&lt;/u&gt;&lt;/b&gt;" style="ellipse;whiteSpace=wrap;html=1;" parent="1" vertex="1">
          <mxGeometry x="225" y="560" width="80" height="60" as="geometry" />
        </mxCell>
        <mxCell id="gRAF1kNLKZZ4CSxUnasa-23" value="" style="endArrow=none;html=1;rounded=0;entryX=0.25;entryY=1;entryDx=0;entryDy=0;exitX=0.5;exitY=0;exitDx=0;exitDy=0;" parent="1" source="gRAF1kNLKZZ4CSxUnasa-22" target="gRAF1kNLKZZ4CSxUnasa-19" edge="1">
          <mxGeometry width="50" height="50" relative="1" as="geometry">
            <mxPoint x="145" y="630" as="sourcePoint" />
            <mxPoint x="195" y="580" as="targetPoint" />
          </mxGeometry>
        </mxCell>
        <mxCell id="gRAF1kNLKZZ4CSxUnasa-25" value="" style="endArrow=none;html=1;rounded=0;entryX=0.75;entryY=1;entryDx=0;entryDy=0;exitX=0.5;exitY=0;exitDx=0;exitDy=0;" parent="1" source="gRAF1kNLKZZ4CSxUnasa-21" target="gRAF1kNLKZZ4CSxUnasa-19" edge="1">
          <mxGeometry width="50" height="50" relative="1" as="geometry">
            <mxPoint x="435" y="670" as="sourcePoint" />
            <mxPoint x="485" y="620" as="targetPoint" />
          </mxGeometry>
        </mxCell>
        <mxCell id="gRAF1kNLKZZ4CSxUnasa-26" value="Drug" style="rounded=0;whiteSpace=wrap;html=1;" parent="1" vertex="1">
          <mxGeometry x="650" y="470" width="120" height="60" as="geometry" />
        </mxCell>
        <mxCell id="gRAF1kNLKZZ4CSxUnasa-28" value="&lt;b&gt;&lt;u&gt;trade name&lt;/u&gt;&lt;/b&gt;" style="ellipse;whiteSpace=wrap;html=1;" parent="1" vertex="1">
          <mxGeometry x="650" y="580" width="80" height="60" as="geometry" />
        </mxCell>
        <mxCell id="gRAF1kNLKZZ4CSxUnasa-30" value="formula" style="ellipse;whiteSpace=wrap;html=1;" parent="1" vertex="1">
          <mxGeometry x="770" y="580" width="80" height="60" as="geometry" />
        </mxCell>
        <mxCell id="gRAF1kNLKZZ4CSxUnasa-31" value="" style="endArrow=none;html=1;rounded=0;entryX=0.383;entryY=1.033;entryDx=0;entryDy=0;entryPerimeter=0;exitX=0.5;exitY=0;exitDx=0;exitDy=0;" parent="1" source="gRAF1kNLKZZ4CSxUnasa-28" target="gRAF1kNLKZZ4CSxUnasa-26" edge="1">
          <mxGeometry width="50" height="50" relative="1" as="geometry">
            <mxPoint x="630" y="600" as="sourcePoint" />
            <mxPoint x="680" y="550" as="targetPoint" />
          </mxGeometry>
        </mxCell>
        <mxCell id="gRAF1kNLKZZ4CSxUnasa-32" value="" style="endArrow=none;html=1;rounded=0;entryX=0.833;entryY=1;entryDx=0;entryDy=0;entryPerimeter=0;exitX=0.5;exitY=0;exitDx=0;exitDy=0;" parent="1" source="gRAF1kNLKZZ4CSxUnasa-30" target="gRAF1kNLKZZ4CSxUnasa-26" edge="1">
          <mxGeometry width="50" height="50" relative="1" as="geometry">
            <mxPoint x="800" y="580" as="sourcePoint" />
            <mxPoint x="780" y="560" as="targetPoint" />
          </mxGeometry>
        </mxCell>
        <mxCell id="gRAF1kNLKZZ4CSxUnasa-33" value="sold by/makes" style="rhombus;whiteSpace=wrap;html=1;" parent="1" vertex="1">
          <mxGeometry x="470" y="460" width="100" height="80" as="geometry" />
        </mxCell>
        <mxCell id="gRAF1kNLKZZ4CSxUnasa-34" value="" style="endArrow=none;html=1;rounded=0;exitX=1;exitY=0.5;exitDx=0;exitDy=0;entryX=0;entryY=0.5;entryDx=0;entryDy=0;" parent="1" source="gRAF1kNLKZZ4CSxUnasa-19" target="gRAF1kNLKZZ4CSxUnasa-33" edge="1">
          <mxGeometry width="50" height="50" relative="1" as="geometry">
            <mxPoint x="430" y="515" as="sourcePoint" />
            <mxPoint x="480" y="465" as="targetPoint" />
          </mxGeometry>
        </mxCell>
        <mxCell id="gRAF1kNLKZZ4CSxUnasa-36" value="Pharmacy" style="rounded=0;whiteSpace=wrap;html=1;" parent="1" vertex="1">
          <mxGeometry x="40" y="725" width="120" height="60" as="geometry" />
        </mxCell>
        <mxCell id="gRAF1kNLKZZ4CSxUnasa-37" value="&lt;b&gt;&lt;u&gt;name&lt;/u&gt;&lt;/b&gt;" style="ellipse;whiteSpace=wrap;html=1;" parent="1" vertex="1">
          <mxGeometry x="-100" y="680" width="80" height="60" as="geometry" />
        </mxCell>
        <mxCell id="gRAF1kNLKZZ4CSxUnasa-38" value="phone number" style="ellipse;whiteSpace=wrap;html=1;" parent="1" vertex="1">
          <mxGeometry x="-80" y="820" width="80" height="60" as="geometry" />
        </mxCell>
        <mxCell id="gRAF1kNLKZZ4CSxUnasa-39" value="&lt;b&gt;&lt;u&gt;address&lt;/u&gt;&lt;/b&gt;" style="ellipse;whiteSpace=wrap;html=1;" parent="1" vertex="1">
          <mxGeometry x="-100" y="750" width="80" height="60" as="geometry" />
        </mxCell>
        <mxCell id="gRAF1kNLKZZ4CSxUnasa-40" value="" style="endArrow=none;html=1;rounded=0;entryX=1.025;entryY=0.617;entryDx=0;entryDy=0;entryPerimeter=0;exitX=0.1;exitY=-0.05;exitDx=0;exitDy=0;exitPerimeter=0;" parent="1" source="gRAF1kNLKZZ4CSxUnasa-36" target="gRAF1kNLKZZ4CSxUnasa-37" edge="1">
          <mxGeometry width="50" height="50" relative="1" as="geometry">
            <mxPoint x="40" y="740" as="sourcePoint" />
            <mxPoint x="90" y="690" as="targetPoint" />
          </mxGeometry>
        </mxCell>
        <mxCell id="gRAF1kNLKZZ4CSxUnasa-41" value="" style="endArrow=none;html=1;rounded=0;entryX=0;entryY=0.75;entryDx=0;entryDy=0;exitX=1;exitY=0.5;exitDx=0;exitDy=0;" parent="1" source="gRAF1kNLKZZ4CSxUnasa-39" target="gRAF1kNLKZZ4CSxUnasa-36" edge="1">
          <mxGeometry width="50" height="50" relative="1" as="geometry">
            <mxPoint x="-20" y="810" as="sourcePoint" />
            <mxPoint x="30" y="760" as="targetPoint" />
          </mxGeometry>
        </mxCell>
        <mxCell id="gRAF1kNLKZZ4CSxUnasa-42" value="" style="endArrow=none;html=1;rounded=0;entryX=0.25;entryY=1;entryDx=0;entryDy=0;exitX=1;exitY=0;exitDx=0;exitDy=0;" parent="1" source="gRAF1kNLKZZ4CSxUnasa-38" target="gRAF1kNLKZZ4CSxUnasa-36" edge="1">
          <mxGeometry width="50" height="50" relative="1" as="geometry">
            <mxPoint y="850" as="sourcePoint" />
            <mxPoint x="50" y="800" as="targetPoint" />
          </mxGeometry>
        </mxCell>
        <mxCell id="gRAF1kNLKZZ4CSxUnasa-43" value="Primary Physician" style="rhombus;whiteSpace=wrap;html=1;" parent="1" vertex="1">
          <mxGeometry x="380" y="130" width="80" height="80" as="geometry" />
        </mxCell>
        <mxCell id="gRAF1kNLKZZ4CSxUnasa-44" value="" style="endArrow=classic;html=1;rounded=0;exitX=0;exitY=0.5;exitDx=0;exitDy=0;" parent="1" source="gRAF1kNLKZZ4CSxUnasa-26" edge="1">
          <mxGeometry width="50" height="50" relative="1" as="geometry">
            <mxPoint x="580" y="565" as="sourcePoint" />
            <mxPoint x="580" y="500" as="targetPoint" />
          </mxGeometry>
        </mxCell>
        <mxCell id="gRAF1kNLKZZ4CSxUnasa-45" value="" style="endArrow=none;html=1;rounded=0;entryX=0;entryY=0.5;entryDx=0;entryDy=0;exitX=1;exitY=0.5;exitDx=0;exitDy=0;" parent="1" source="gRAF1kNLKZZ4CSxUnasa-43" target="gRAF1kNLKZZ4CSxUnasa-10" edge="1">
          <mxGeometry width="50" height="50" relative="1" as="geometry">
            <mxPoint x="500" y="210" as="sourcePoint" />
            <mxPoint x="550" y="160" as="targetPoint" />
          </mxGeometry>
        </mxCell>
        <mxCell id="gRAF1kNLKZZ4CSxUnasa-46" value="" style="endArrow=classic;html=1;rounded=0;exitX=1;exitY=0.5;exitDx=0;exitDy=0;entryX=0;entryY=0.5;entryDx=0;entryDy=0;" parent="1" source="gRAF1kNLKZZ4CSxUnasa-1" target="gRAF1kNLKZZ4CSxUnasa-43" edge="1">
          <mxGeometry width="50" height="50" relative="1" as="geometry">
            <mxPoint x="280" y="200" as="sourcePoint" />
            <mxPoint x="330" y="150" as="targetPoint" />
          </mxGeometry>
        </mxCell>
        <mxCell id="gRAF1kNLKZZ4CSxUnasa-47" value="sells" style="rhombus;whiteSpace=wrap;html=1;" parent="1" vertex="1">
          <mxGeometry x="410" y="715" width="80" height="80" as="geometry" />
        </mxCell>
        <mxCell id="gRAF1kNLKZZ4CSxUnasa-49" value="price" style="ellipse;whiteSpace=wrap;html=1;" parent="1" vertex="1">
          <mxGeometry x="520" y="840" width="80" height="60" as="geometry" />
        </mxCell>
        <mxCell id="gRAF1kNLKZZ4CSxUnasa-50" value="" style="endArrow=none;html=1;rounded=0;entryX=1;entryY=1;entryDx=0;entryDy=0;exitX=0;exitY=0;exitDx=0;exitDy=0;" parent="1" source="gRAF1kNLKZZ4CSxUnasa-49" target="gRAF1kNLKZZ4CSxUnasa-47" edge="1">
          <mxGeometry width="50" height="50" relative="1" as="geometry">
            <mxPoint x="525.04" y="845" as="sourcePoint" />
            <mxPoint x="490" y="795" as="targetPoint" />
          </mxGeometry>
        </mxCell>
        <mxCell id="gRAF1kNLKZZ4CSxUnasa-51" value="" style="endArrow=none;html=1;rounded=0;entryX=0;entryY=0.5;entryDx=0;entryDy=0;" parent="1" source="gRAF1kNLKZZ4CSxUnasa-36" target="gRAF1kNLKZZ4CSxUnasa-47" edge="1">
          <mxGeometry width="50" height="50" relative="1" as="geometry">
            <mxPoint x="305" y="795" as="sourcePoint" />
            <mxPoint x="375.71067811865476" y="745" as="targetPoint" />
          </mxGeometry>
        </mxCell>
        <mxCell id="gRAF1kNLKZZ4CSxUnasa-52" value="" style="endArrow=none;html=1;rounded=0;exitX=1;exitY=0.5;exitDx=0;exitDy=0;entryX=0.558;entryY=0.967;entryDx=0;entryDy=0;entryPerimeter=0;" parent="1" source="gRAF1kNLKZZ4CSxUnasa-47" target="gRAF1kNLKZZ4CSxUnasa-26" edge="1">
          <mxGeometry width="50" height="50" relative="1" as="geometry">
            <mxPoint x="530" y="755" as="sourcePoint" />
            <mxPoint x="580" y="705" as="targetPoint" />
            <Array as="points">
              <mxPoint x="790" y="755" />
            </Array>
          </mxGeometry>
        </mxCell>
        <mxCell id="gRAF1kNLKZZ4CSxUnasa-53" value="prescribe&lt;br&gt;drugs" style="rhombus;whiteSpace=wrap;html=1;" parent="1" vertex="1">
          <mxGeometry x="380" y="230" width="80" height="80" as="geometry" />
        </mxCell>
        <mxCell id="gRAF1kNLKZZ4CSxUnasa-54" value="" style="endArrow=none;html=1;rounded=0;exitX=0.5;exitY=1;exitDx=0;exitDy=0;entryX=0;entryY=0.5;entryDx=0;entryDy=0;" parent="1" source="gRAF1kNLKZZ4CSxUnasa-1" target="gRAF1kNLKZZ4CSxUnasa-53" edge="1">
          <mxGeometry width="50" height="50" relative="1" as="geometry">
            <mxPoint x="180" y="300" as="sourcePoint" />
            <mxPoint x="230" y="250" as="targetPoint" />
            <Array as="points">
              <mxPoint x="200" y="270" />
            </Array>
          </mxGeometry>
        </mxCell>
        <mxCell id="gRAF1kNLKZZ4CSxUnasa-55" value="" style="endArrow=none;html=1;rounded=0;exitX=1;exitY=0.5;exitDx=0;exitDy=0;entryX=0.5;entryY=1;entryDx=0;entryDy=0;" parent="1" source="gRAF1kNLKZZ4CSxUnasa-53" target="gRAF1kNLKZZ4CSxUnasa-10" edge="1">
          <mxGeometry width="50" height="50" relative="1" as="geometry">
            <mxPoint x="500" y="270" as="sourcePoint" />
            <mxPoint x="550" y="220" as="targetPoint" />
            <Array as="points">
              <mxPoint x="650" y="270" />
            </Array>
          </mxGeometry>
        </mxCell>
        <mxCell id="gRAF1kNLKZZ4CSxUnasa-56" value="date" style="ellipse;whiteSpace=wrap;html=1;" parent="1" vertex="1">
          <mxGeometry x="290" y="330" width="80" height="60" as="geometry" />
        </mxCell>
        <mxCell id="gRAF1kNLKZZ4CSxUnasa-57" value="" style="endArrow=none;html=1;rounded=0;entryX=0;entryY=1;entryDx=0;entryDy=0;exitX=1;exitY=0;exitDx=0;exitDy=0;" parent="1" source="gRAF1kNLKZZ4CSxUnasa-56" target="gRAF1kNLKZZ4CSxUnasa-53" edge="1">
          <mxGeometry width="50" height="50" relative="1" as="geometry">
            <mxPoint x="340" y="340" as="sourcePoint" />
            <mxPoint x="390" y="290" as="targetPoint" />
          </mxGeometry>
        </mxCell>
        <mxCell id="gRAF1kNLKZZ4CSxUnasa-59" value="quantity" style="ellipse;whiteSpace=wrap;html=1;" parent="1" vertex="1">
          <mxGeometry x="450" y="340" width="80" height="60" as="geometry" />
        </mxCell>
        <mxCell id="gRAF1kNLKZZ4CSxUnasa-60" value="" style="endArrow=none;html=1;rounded=0;entryX=1;entryY=1;entryDx=0;entryDy=0;exitX=0.5;exitY=0;exitDx=0;exitDy=0;" parent="1" source="gRAF1kNLKZZ4CSxUnasa-59" target="gRAF1kNLKZZ4CSxUnasa-53" edge="1">
          <mxGeometry width="50" height="50" relative="1" as="geometry">
            <mxPoint x="390" y="370" as="sourcePoint" />
            <mxPoint x="440" y="320" as="targetPoint" />
          </mxGeometry>
        </mxCell>
        <mxCell id="gRAF1kNLKZZ4CSxUnasa-61" value="" style="endArrow=none;html=1;rounded=0;entryX=0.5;entryY=1;entryDx=0;entryDy=0;" parent="1" target="gRAF1kNLKZZ4CSxUnasa-53" edge="1">
          <mxGeometry width="50" height="50" relative="1" as="geometry">
            <mxPoint x="640" y="460" as="sourcePoint" />
            <mxPoint x="430" y="360" as="targetPoint" />
            <Array as="points">
              <mxPoint x="530" y="440" />
              <mxPoint x="420" y="440" />
            </Array>
          </mxGeometry>
        </mxCell>
        <mxCell id="gRAF1kNLKZZ4CSxUnasa-62" value="contracts" style="rhombus;whiteSpace=wrap;html=1;" parent="1" vertex="1">
          <mxGeometry x="60" y="460" width="80" height="80" as="geometry" />
        </mxCell>
        <mxCell id="gRAF1kNLKZZ4CSxUnasa-64" value="" style="endArrow=none;html=1;rounded=0;exitX=1;exitY=0.5;exitDx=0;exitDy=0;entryX=0;entryY=0.5;entryDx=0;entryDy=0;" parent="1" source="gRAF1kNLKZZ4CSxUnasa-62" target="gRAF1kNLKZZ4CSxUnasa-19" edge="1">
          <mxGeometry width="50" height="50" relative="1" as="geometry">
            <mxPoint x="180" y="530" as="sourcePoint" />
            <mxPoint x="230" y="480" as="targetPoint" />
          </mxGeometry>
        </mxCell>
        <mxCell id="gRAF1kNLKZZ4CSxUnasa-65" value="" style="endArrow=none;html=1;rounded=0;exitX=0.5;exitY=0;exitDx=0;exitDy=0;entryX=0.5;entryY=1;entryDx=0;entryDy=0;" parent="1" source="gRAF1kNLKZZ4CSxUnasa-36" target="gRAF1kNLKZZ4CSxUnasa-62" edge="1">
          <mxGeometry width="50" height="50" relative="1" as="geometry">
            <mxPoint x="70" y="690" as="sourcePoint" />
            <mxPoint x="120" y="640" as="targetPoint" />
          </mxGeometry>
        </mxCell>
        <mxCell id="gRAF1kNLKZZ4CSxUnasa-66" value="" style="endArrow=none;html=1;rounded=0;exitX=1;exitY=0.5;exitDx=0;exitDy=0;" parent="1" source="gRAF1kNLKZZ4CSxUnasa-69" target="gRAF1kNLKZZ4CSxUnasa-62" edge="1">
          <mxGeometry width="50" height="50" relative="1" as="geometry">
            <mxPoint y="580" as="sourcePoint" />
            <mxPoint x="50" y="530" as="targetPoint" />
          </mxGeometry>
        </mxCell>
        <mxCell id="gRAF1kNLKZZ4CSxUnasa-67" value="start date" style="ellipse;whiteSpace=wrap;html=1;" parent="1" vertex="1">
          <mxGeometry x="-10" y="330" width="80" height="60" as="geometry" />
        </mxCell>
        <mxCell id="gRAF1kNLKZZ4CSxUnasa-68" value="end date" style="ellipse;whiteSpace=wrap;html=1;" parent="1" vertex="1">
          <mxGeometry x="-80" y="380" width="80" height="60" as="geometry" />
        </mxCell>
        <mxCell id="gRAF1kNLKZZ4CSxUnasa-69" value="text of contract" style="ellipse;whiteSpace=wrap;html=1;" parent="1" vertex="1">
          <mxGeometry x="-100" y="460" width="80" height="60" as="geometry" />
        </mxCell>
        <mxCell id="gRAF1kNLKZZ4CSxUnasa-70" value="" style="endArrow=none;html=1;rounded=0;exitX=1;exitY=0.5;exitDx=0;exitDy=0;entryX=0.111;entryY=0.349;entryDx=0;entryDy=0;entryPerimeter=0;" parent="1" source="gRAF1kNLKZZ4CSxUnasa-68" target="gRAF1kNLKZZ4CSxUnasa-62" edge="1">
          <mxGeometry width="50" height="50" relative="1" as="geometry">
            <mxPoint x="40" y="470" as="sourcePoint" />
            <mxPoint x="90" y="420" as="targetPoint" />
          </mxGeometry>
        </mxCell>
        <mxCell id="gRAF1kNLKZZ4CSxUnasa-71" value="" style="endArrow=none;html=1;rounded=0;exitX=1.001;exitY=0.69;exitDx=0;exitDy=0;exitPerimeter=0;entryX=0.376;entryY=0.157;entryDx=0;entryDy=0;entryPerimeter=0;" parent="1" source="gRAF1kNLKZZ4CSxUnasa-67" target="gRAF1kNLKZZ4CSxUnasa-62" edge="1">
          <mxGeometry width="50" height="50" relative="1" as="geometry">
            <mxPoint x="120" y="410" as="sourcePoint" />
            <mxPoint x="170" y="360" as="targetPoint" />
          </mxGeometry>
        </mxCell>
        <mxCell id="gRAF1kNLKZZ4CSxUnasa-72" value="supervisor" style="ellipse;whiteSpace=wrap;html=1;" parent="1" vertex="1">
          <mxGeometry x="-60" y="540" width="80" height="60" as="geometry" />
        </mxCell>
        <mxCell id="gRAF1kNLKZZ4CSxUnasa-73" value="" style="endArrow=none;html=1;rounded=0;entryX=0;entryY=1;entryDx=0;entryDy=0;exitX=0.979;exitY=0.229;exitDx=0;exitDy=0;exitPerimeter=0;" parent="1" source="gRAF1kNLKZZ4CSxUnasa-72" target="gRAF1kNLKZZ4CSxUnasa-62" edge="1">
          <mxGeometry width="50" height="50" relative="1" as="geometry">
            <mxPoint x="30" y="590" as="sourcePoint" />
            <mxPoint x="80" y="540" as="targetPoint" />
          </mxGeometry>
        </mxCell>
        <mxCell id="Pdgv5skag8QLcuhdJyBb-2" value="" style="endArrow=none;html=1;rounded=0;" edge="1" parent="1">
          <mxGeometry width="50" height="50" relative="1" as="geometry">
            <mxPoint x="640" y="460" as="sourcePoint" />
            <mxPoint x="780" y="460" as="targetPoint" />
          </mxGeometry>
        </mxCell>
        <mxCell id="Pdgv5skag8QLcuhdJyBb-3" value="" style="endArrow=none;html=1;rounded=0;" edge="1" parent="1">
          <mxGeometry width="50" height="50" relative="1" as="geometry">
            <mxPoint x="640" y="540" as="sourcePoint" />
            <mxPoint x="639.58" y="460" as="targetPoint" />
          </mxGeometry>
        </mxCell>
        <mxCell id="Pdgv5skag8QLcuhdJyBb-4" value="" style="endArrow=none;html=1;rounded=0;" edge="1" parent="1">
          <mxGeometry width="50" height="50" relative="1" as="geometry">
            <mxPoint x="640" y="540" as="sourcePoint" />
            <mxPoint x="780" y="540" as="targetPoint" />
          </mxGeometry>
        </mxCell>
        <mxCell id="Pdgv5skag8QLcuhdJyBb-5" value="" style="endArrow=none;html=1;rounded=0;" edge="1" parent="1">
          <mxGeometry width="50" height="50" relative="1" as="geometry">
            <mxPoint x="780" y="540" as="sourcePoint" />
            <mxPoint x="780" y="460" as="targetPoint" />
          </mxGeometry>
        </mxCell>
        <mxCell id="Pdgv5skag8QLcuhdJyBb-6" value="" style="endArrow=none;html=1;rounded=0;" edge="1" parent="1">
          <mxGeometry width="50" height="50" relative="1" as="geometry">
            <mxPoint x="460" y="500" as="sourcePoint" />
            <mxPoint x="520" y="450" as="targetPoint" />
          </mxGeometry>
        </mxCell>
        <mxCell id="Pdgv5skag8QLcuhdJyBb-7" value="" style="endArrow=none;html=1;rounded=0;" edge="1" parent="1">
          <mxGeometry width="50" height="50" relative="1" as="geometry">
            <mxPoint x="460" y="500" as="sourcePoint" />
            <mxPoint x="520" y="550" as="targetPoint" />
          </mxGeometry>
        </mxCell>
        <mxCell id="Pdgv5skag8QLcuhdJyBb-8" value="" style="endArrow=none;html=1;rounded=0;" edge="1" parent="1">
          <mxGeometry width="50" height="50" relative="1" as="geometry">
            <mxPoint x="520" y="550" as="sourcePoint" />
            <mxPoint x="580" y="500" as="targetPoint" />
          </mxGeometry>
        </mxCell>
        <mxCell id="Pdgv5skag8QLcuhdJyBb-9" value="" style="endArrow=none;html=1;rounded=0;" edge="1" parent="1">
          <mxGeometry width="50" height="50" relative="1" as="geometry">
            <mxPoint x="580" y="500" as="sourcePoint" />
            <mxPoint x="520" y="450" as="targetPoint" />
          </mxGeometry>
        </mxCell>
      </root>
    </mxGraphModel>
  </diagram>
</mxfile>
